# xmcd
#
# Track frame offsets: 
#        150
#        17967
#        39680
#        56125
#        77367
#        96912
#        111710
#        137767
#        154695
#        172487
#        189805
#
# Disc length: 2841 seconds
#
# Revision: 2
# Processed by: cddbd v1.5.2PL0 Copyright (c) Steve Scherf et al.
# Submitted via: ExactAudioCopy v0.99pb4
#
DISCID=980b170b
DTITLE=Arthur Williams - Harpin' On It
DYEAR=1999
DGENRE=Blues
TTITLE0=I Can't Stand To See You Go
TTITLE1=Ain't Goin' Back To East St. Louis
TTITLE2=Harmin' On It
TTITLE3=One Room Country Shack
TTITLE4=Mama Talk To Your Daughter
TTITLE5=Runnin' Down The Dirt Road
TTITLE6=Mean Old World
TTITLE7=Chitlins and Hot Sauce
TTITLE8=Goin' To Memphis
TTITLE9=Mother-In-Law Blues
TTITLE10=Talkin' Too Much
EXTD=
EXTT0=
EXTT1=
EXTT2=
EXTT3=
EXTT4=
EXTT5=
EXTT6=
EXTT7=
EXTT8=
EXTT9=
EXTT10=
PLAYORDER=
